<svg width="39" height="35" viewBox="0 0 39 35" fill="none" xmlns="http://www.w3.org/2000/svg">
<path d="M36 0H3C2.20435 0 1.44129 0.31607 0.87868 0.87868C0.31607 1.44129 0 2.20435 0 3V33C0.000136486 33.2557 0.0656148 33.507 0.190218 33.7303C0.314822 33.9535 0.494415 34.1412 0.711948 34.2755C0.929481 34.4098 1.17773 34.4863 1.43314 34.4977C1.68854 34.5091 1.94262 34.455 2.17125 34.3406L7.5 31.6763L12.8287 34.3406C13.0371 34.4449 13.267 34.4992 13.5 34.4992C13.733 34.4992 13.9629 34.4449 14.1713 34.3406L19.5 31.6763L24.8288 34.3406C25.0371 34.4449 25.267 34.4992 25.5 34.4992C25.733 34.4992 25.9629 34.4449 26.1712 34.3406L31.5 31.6763L36.8288 34.3406C37.0574 34.455 37.3115 34.5091 37.5669 34.4977C37.8223 34.4863 38.0705 34.4098 38.2881 34.2755C38.5056 34.1412 38.6852 33.9535 38.8098 33.7303C38.9344 33.507 38.9999 33.2557 39 33V3C39 2.20435 38.6839 1.44129 38.1213 0.87868C37.5587 0.31607 36.7957 0 36 0ZM36 30.5737L32.1712 28.6575C31.9629 28.5532 31.733 28.4989 31.5 28.4989C31.267 28.4989 31.0371 28.5532 30.8288 28.6575L25.5 31.3237L20.1712 28.6575C19.9629 28.5532 19.733 28.4989 19.5 28.4989C19.267 28.4989 19.0371 28.5532 18.8288 28.6575L13.5 31.3237L8.17125 28.6575C7.96286 28.5532 7.73303 28.4989 7.5 28.4989C7.26697 28.4989 7.03714 28.5532 6.82875 28.6575L3 30.5737V3H36V30.5737ZM21 13.5C21 13.1022 21.158 12.7206 21.4393 12.4393C21.7206 12.158 22.1022 12 22.5 12H31.5C31.8978 12 32.2794 12.158 32.5607 12.4393C32.842 12.7206 33 13.1022 33 13.5C33 13.8978 32.842 14.2794 32.5607 14.5607C32.2794 14.842 31.8978 15 31.5 15H22.5C22.1022 15 21.7206 14.842 21.4393 14.5607C21.158 14.2794 21 13.8978 21 13.5ZM21 19.5C21 19.1022 21.158 18.7206 21.4393 18.4393C21.7206 18.158 22.1022 18 22.5 18H31.5C31.8978 18 32.2794 18.158 32.5607 18.4393C32.842 18.7206 33 19.1022 33 19.5C33 19.8978 32.842 20.2794 32.5607 20.5607C32.2794 20.842 31.8978 21 31.5 21H22.5C22.1022 21 21.7206 20.842 21.4393 20.5607C21.158 20.2794 21 19.8978 21 19.5ZM7.5 24H16.5C16.8978 24 17.2794 23.842 17.5607 23.5607C17.842 23.2794 18 22.8978 18 22.5V10.5C18 10.1022 17.842 9.72064 17.5607 9.43934C17.2794 9.15804 16.8978 9 16.5 9H7.5C7.10218 9 6.72064 9.15804 6.43934 9.43934C6.15804 9.72064 6 10.1022 6 10.5V22.5C6 22.8978 6.15804 23.2794 6.43934 23.5607C6.72064 23.842 7.10218 24 7.5 24ZM9 12H15V21H9V12Z" fill="#334FDC"/>
</svg>
