<svg width="27" height="42" viewBox="0 0 27 42" fill="none" xmlns="http://www.w3.org/2000/svg">
<path d="M6.75 42H20.25C22.0402 42 23.7571 41.2888 25.023 40.023C26.2888 38.7571 27 37.0402 27 35.25C27 33.4598 26.2888 31.7429 25.023 30.477C23.7571 29.2112 22.0402 28.5 20.25 28.5H6.75C4.95979 28.5 3.2429 29.2112 1.97703 30.477C0.711159 31.7429 0 33.4598 0 35.25C0 37.0402 0.711159 38.7571 1.97703 40.023C3.2429 41.2888 4.95979 42 6.75 42ZM24 35.25C24 36.2446 23.6049 37.1984 22.9016 37.9016C22.1984 38.6049 21.2446 39 20.25 39H15V31.5H20.25C21.2446 31.5 22.1984 31.8951 22.9016 32.5984C23.6049 33.3016 24 34.2554 24 35.25ZM6.75 31.5H12V39H6.75C5.75544 39 4.80161 38.6049 4.09835 37.9016C3.39509 37.1984 3 36.2446 3 35.25C3 34.2554 3.39509 33.3016 4.09835 32.5984C4.80161 31.8951 5.75544 31.5 6.75 31.5ZM12 6.21L2.46 15.75C1.26768 17.0296 0.618571 18.722 0.649425 20.4707C0.680279 22.2194 1.38869 23.8879 2.6254 25.1246C3.86212 26.3613 5.53059 27.0697 7.2793 27.1006C9.02801 27.1314 10.7204 26.4823 12 25.29L21.54 15.75C22.7323 14.4704 23.3814 12.778 23.3506 11.0293C23.3197 9.28059 22.6113 7.61212 21.3746 6.3754C20.1379 5.13869 18.4694 4.43028 16.7207 4.39943C14.972 4.36857 13.2796 5.01768 12 6.21ZM9.885 23.175C9.18085 23.8891 8.22187 24.2942 7.21902 24.3013C6.21617 24.3083 5.2516 23.9167 4.5375 23.2125C3.8234 22.5084 3.41828 21.5494 3.41125 20.5465C3.40421 19.5437 3.79585 18.5791 4.5 17.865L8.22 14.145L13.59 19.5L9.885 23.175ZM19.5 13.635L15.78 17.355L10.41 12L14.115 8.295C14.8231 7.5809 15.7859 7.17736 16.7916 7.17314C17.7973 7.16892 18.7634 7.56437 19.4775 8.2725C20.1916 8.98063 20.5951 9.94343 20.5994 10.9491C20.6036 11.9548 20.2081 12.9209 19.5 13.635ZM4.5 0C4.10218 0 3.72064 0.158035 3.43934 0.43934C3.15804 0.720644 3 1.10218 3 1.5V3H1.5C1.10218 3 0.720645 3.15804 0.43934 3.43934C0.158036 3.72064 0 4.10218 0 4.5C0 4.89782 0.158036 5.27936 0.43934 5.56066C0.720645 5.84196 1.10218 6 1.5 6H3V7.5C3 7.89782 3.15804 8.27936 3.43934 8.56066C3.72064 8.84196 4.10218 9 4.5 9C4.89782 9 5.27936 8.84196 5.56066 8.56066C5.84196 8.27936 6 7.89782 6 7.5V6H7.5C7.89782 6 8.27936 5.84196 8.56066 5.56066C8.84196 5.27936 9 4.89782 9 4.5C9 4.10218 8.84196 3.72064 8.56066 3.43934C8.27936 3.15804 7.89782 3 7.5 3H6V1.5C6 1.10218 5.84196 0.720644 5.56066 0.43934C5.27936 0.158035 4.89782 0 4.5 0ZM22.5 18C22.1022 18 21.7206 18.158 21.4393 18.4393C21.158 18.7206 21 19.1022 21 19.5V21H19.5C19.1022 21 18.7206 21.158 18.4393 21.4393C18.158 21.7206 18 22.1022 18 22.5C18 22.8978 18.158 23.2794 18.4393 23.5607C18.7206 23.842 19.1022 24 19.5 24H21V25.5C21 25.8978 21.158 26.2794 21.4393 26.5607C21.7206 26.842 22.1022 27 22.5 27C22.8978 27 23.2794 26.842 23.5607 26.5607C23.842 26.2794 24 25.8978 24 25.5V24H25.5C25.8978 24 26.2794 23.842 26.5607 23.5607C26.842 23.2794 27 22.8978 27 22.5C27 22.1022 26.842 21.7206 26.5607 21.4393C26.2794 21.158 25.8978 21 25.5 21H24V19.5C24 19.1022 23.842 18.7206 23.5607 18.4393C23.2794 18.158 22.8978 18 22.5 18Z" fill="#C02636"/>
<path d="M24 35.25C24 36.2446 23.6049 37.1984 22.9016 37.9016C22.1984 38.6049 21.2446 39 20.25 39H15V31.5H20.25C21.2446 31.5 22.1984 31.8951 22.9016 32.5984C23.6049 33.3016 24 34.2554 24 35.25Z" fill="#C02636" fill-opacity="0.2"/>
<path d="M9.885 23.175C9.18085 23.8891 8.22187 24.2942 7.21902 24.3013C6.21617 24.3083 5.2516 23.9167 4.5375 23.2125C3.8234 22.5084 3.41828 21.5494 3.41125 20.5465C3.40421 19.5437 3.79585 18.5791 4.5 17.865L8.22 14.145L13.59 19.5L9.885 23.175Z" fill="#C02636" fill-opacity="0.2"/>
</svg>
